<svg width="16" height="16" viewBox="0 0 16 16" fill="none" xmlns="http://www.w3.org/2000/svg">
<path d="M5.33333 7.33293H8.33333C9.2538 7.33293 10 6.58673 10 5.66626C10 4.74579 9.2538 3.99959 8.33333 3.99959H5.33333V7.33293ZM12 10.3329C12 11.9898 10.6569 13.3329 9 13.3329H4V2.66626H8.33333C9.9902 2.66626 11.3333 4.00941 11.3333 5.66626C11.3333 6.46913 11.0179 7.19833 10.5043 7.73679C11.3986 8.25606 12 9.22426 12 10.3329ZM5.33333 8.66626V11.9996H9C9.92047 11.9996 10.6667 11.2534 10.6667 10.3329C10.6667 9.41246 9.92047 8.66626 9 8.66626H5.33333Z" fill="#0B2027" fill-opacity="0.6"/>
</svg>
