<svg width="22" height="22" viewBox="0 0 22 22" fill="none" xmlns="http://www.w3.org/2000/svg">
<path d="M17 10.667H9M17 6.66699H9M17 14.667H9" stroke="#0B2027" stroke-linecap="round" stroke-linejoin="round"/>
<path d="M5.6667 11.334C6.0349 11.334 6.3334 11.035 6.3334 10.667C6.3334 10.299 6.0349 10 5.6667 10C5.2985 10 5 10.299 5 10.667C5 11.035 5.2985 11.334 5.6667 11.334Z" stroke="#00D29D" stroke-linecap="round" stroke-linejoin="round"/>
<path d="M5.6667 7.33398C6.0349 7.33398 6.3334 7.03499 6.3334 6.66699C6.3334 6.29899 6.0349 6 5.6667 6C5.2985 6 5 6.29899 5 6.66699C5 7.03499 5.2985 7.33398 5.6667 7.33398Z" stroke="#00D29D" stroke-linecap="round" stroke-linejoin="round"/>
<path d="M5.6667 15.334C6.0349 15.334 6.3334 15.035 6.3334 14.667C6.3334 14.299 6.0349 14 5.6667 14C5.2985 14 5 14.299 5 14.667C5 15.035 5.2985 15.334 5.6667 15.334Z" stroke="#00D29D" stroke-linecap="round" stroke-linejoin="round"/>
</svg>
