<svg width="22" height="22" viewBox="0 0 22 22" fill="none" xmlns="http://www.w3.org/2000/svg">
<path d="M11 11.7497C11.4142 11.7497 11.7501 11.4134 11.7501 10.9994C11.7501 10.5854 11.4142 10.249 11 10.249C10.5858 10.249 10.25 10.5854 10.25 10.9994C10.25 11.4134 10.5858 11.7497 11 11.7497Z" stroke="#0B2027" stroke-width="1.12499" stroke-linecap="round" stroke-linejoin="round"/>
<path d="M16.25 11.7497C16.6642 11.7497 16.9999 11.4134 16.9999 10.9994C16.9999 10.5854 16.6642 10.249 16.25 10.249C15.8358 10.249 15.5 10.5854 15.5 10.9994C15.5 11.4134 15.8358 11.7497 16.25 11.7497Z" stroke="#0B2027" stroke-width="1.12499" stroke-linecap="round" stroke-linejoin="round"/>
<path d="M5.74992 11.7497C6.16414 11.7497 6.49994 11.4134 6.49994 10.9994C6.49994 10.5854 6.16414 10.249 5.74992 10.249C5.33581 10.249 5 10.5854 5 10.9994C5 11.4134 5.33581 11.7497 5.74992 11.7497Z" stroke="#0B2027" stroke-width="1.12499" stroke-linecap="round" stroke-linejoin="round"/>
</svg>
