<svg width="22" height="22" viewBox="0 0 22 22" fill="none" xmlns="http://www.w3.org/2000/svg">
<path d="M17 15.8003V14.6005C17 13.4818 16.235 12.5422 15.2 12.2758M13.1002 5.1746C13.9795 5.53011 14.5996 6.39323 14.5996 7.40035C14.5996 8.40748 13.9795 9.26971 13.1002 9.62522M14.0002 15.8003C14.0002 14.6815 14.0002 14.1226 13.8175 13.6816C13.5736 13.0939 13.1065 12.6268 12.5188 12.3829C12.0778 12.2002 11.518 12.2002 10.4001 12.2002H8.60009C7.48136 12.2002 6.92244 12.2002 6.48143 12.3829C5.89372 12.6268 5.42571 13.0939 5.18271 13.6816C5 14.1226 5 14.6815 5 15.8003M11.8996 7.40035C11.8996 8.72518 10.8258 9.79982 9.50011 9.79982C8.17438 9.79982 7.09976 8.72518 7.09976 7.40035C7.09976 6.07462 8.17438 5 9.50011 5C10.8258 5 11.8996 6.07462 11.8996 7.40035Z" stroke="#0B2027" stroke-width="0.900022" stroke-linecap="round" stroke-linejoin="round"/>
<path d="M16.9999 15.8005V14.6007C16.9999 13.482 16.2349 12.5424 15.1999 12.276M13.1001 5.1748C13.9794 5.53031 14.5995 6.39343 14.5995 7.40055C14.5995 8.40768 13.9794 9.26991 13.1001 9.62542" stroke="#00D29D" stroke-width="0.900022" stroke-linecap="round" stroke-linejoin="round"/>
</svg>
