<svg width="16" height="16" viewBox="0 0 16 16" fill="none" xmlns="http://www.w3.org/2000/svg">
<path d="M8.00015 3.5C10.6962 3.5 12.9392 5.43988 13.4094 8C12.9392 10.5601 10.6962 12.5 8.00015 12.5C5.30406 12.5 3.06108 10.5601 2.59082 8C3.06108 5.43988 5.30406 3.5 8.00015 3.5ZM8.00015 11.5C10.118 11.5 11.9302 10.026 12.3889 8C11.9302 5.97401 10.118 4.5 8.00015 4.5C5.8823 4.5 4.07011 5.97401 3.61139 8C4.07011 10.026 5.8823 11.5 8.00015 11.5ZM8.00015 10.25C6.75749 10.25 5.75013 9.24265 5.75013 8C5.75013 6.75736 6.75749 5.75 8.00015 5.75C9.24275 5.75 10.2502 6.75736 10.2502 8C10.2502 9.24265 9.24275 10.25 8.00015 10.25ZM8.00015 9.25C8.6905 9.25 9.25015 8.69035 9.25015 8C9.25015 7.30965 8.6905 6.75 8.00015 6.75C7.3098 6.75 6.75013 7.30965 6.75013 8C6.75013 8.69035 7.3098 9.25 8.00015 9.25Z" fill="#0B2027" fill-opacity="0.6"/>
</svg>
