<svg width="22" height="22" viewBox="0 0 22 22" fill="none" xmlns="http://www.w3.org/2000/svg">
<path d="M11 7.90351V10.5705M11 13.2375H11.007M5 7.86451V13.2765C5 13.5045 5 13.6185 5.034 13.7205C5.064 13.8105 5.113 13.8935 5.177 13.9635C5.25 14.0425 5.349 14.0975 5.549 14.2085L10.482 16.9495C10.671 17.0545 10.766 17.1065 10.866 17.1275C10.955 17.1455 11.046 17.1455 11.135 17.1275C11.235 17.1065 11.329 17.0545 11.518 16.9495L16.452 14.2085C16.651 14.0975 16.751 14.0425 16.824 13.9635C16.888 13.8935 16.937 13.8105 16.967 13.7205C17 13.6185 17 13.5045 17 13.2765V7.86451C17 7.63651 17 7.52251 16.967 7.42051C16.937 7.33051 16.888 7.2475 16.824 7.1775C16.751 7.0985 16.651 7.04351 16.452 6.93251L11.518 4.19151C11.329 4.08651 11.235 4.0345 11.135 4.0135C11.046 3.9955 10.955 3.9955 10.866 4.0135C10.766 4.0345 10.671 4.08651 10.482 4.19151L5.549 6.93251C5.349 7.04351 5.25 7.0985 5.177 7.1775C5.113 7.2475 5.064 7.33051 5.034 7.42051C5 7.52251 5 7.63651 5 7.86451Z" stroke="#0B2027" stroke-linecap="round" stroke-linejoin="round"/>
<path d="M11 7.90356V10.5706M11 13.2375H11.007" stroke="#00D29D" stroke-linecap="round" stroke-linejoin="round"/>
</svg>
