<svg width="22" height="22" viewBox="0 0 22 22" fill="none" xmlns="http://www.w3.org/2000/svg">
<path d="M6.79933 6.80037L9.94936 9.9504M6.79933 6.80037H4.69931L4 4.70035L4.69931 4L6.79933 4.70035V6.80037ZM10.9994 13.1004L14.8498 16.9508C15.4294 17.5304 16.3702 17.5304 16.9498 16.9508C17.5294 16.3702 17.5294 15.4304 16.9498 14.8508L13.7829 11.6829" stroke="#00C08B" stroke-width="1.05001" stroke-linecap="round" stroke-linejoin="round"/>
<path d="M11.0001 13.1004L12.3588 11.7427C12.5583 11.5432 12.8565 11.4887 13.1295 11.5632C13.3406 11.621 13.559 11.6619 13.7837 11.6829M16.0821 4.51872L14.2425 6.35829C13.9653 6.6355 13.8267 6.77413 13.7753 6.93373C13.7291 7.07444 13.7291 7.22562 13.7753 7.36633C13.8267 7.52698 13.9653 7.66559 14.2425 7.94279L14.4084 8.10865C14.6856 8.38585 14.8242 8.52446 14.9838 8.57591C15.1245 8.62211 15.2768 8.62211 15.4164 8.57591C15.5771 8.52446 15.7157 8.38585 15.9929 8.10865L17.7128 6.38771C17.8987 6.83921 18.0005 7.33272 18.0005 7.85038C18.0005 9.97665 16.2764 11.7008 14.1501 11.7008C13.8939 11.7008 13.644 11.6755 13.4015 11.6272C13.0613 11.56 12.8912 11.5264 12.7883 11.5369C12.678 11.5485 12.6244 11.5642 12.5268 11.6167C12.4354 11.665 12.3441 11.7575 12.1603 11.9402L7.15075 16.9508C6.57009 17.5304 5.63033 17.5304 5.05073 16.9508C4.47007 16.3702 4.47007 15.4304 5.05073 14.8508L10.0603 9.84017C10.2441 9.65747 10.3354 9.56507 10.3848 9.47372C10.4362 9.37711 10.453 9.32246 10.4635 9.21326C10.474 9.11036 10.4404 8.9403 10.3732 8.59905C10.326 8.35755 10.3008 8.10658 10.3008 7.85038C10.3008 5.72411 12.0238 4 14.1501 4C14.8547 4 15.5141 4.18902 16.0821 4.51872Z" stroke="#0B2027" stroke-width="1.05001" stroke-linecap="round" stroke-linejoin="round"/>
</svg>
