<svg width="288" height="148" viewBox="0 0 288 148" fill="none" xmlns="http://www.w3.org/2000/svg">
<g clip-path="url(#clip0_139_1691)">
<rect width="288" height="148" rx="8" fill="#0B2027" fill-opacity="0.04"/>
<path fill-rule="evenodd" clip-rule="evenodd" d="M113.988 69.5069L139.187 44.0089C141.836 41.3304 146.168 41.3304 148.815 44.0089L174.014 69.5069C176.662 72.1859 176.662 76.57 174.013 79.2492L148.814 104.747C146.167 107.427 141.833 107.427 139.185 104.747L113.986 79.2503C111.338 76.5712 111.338 72.1865 113.986 69.5069H113.987H113.988ZM116.499 72.0213L141.674 46.5476C142.954 45.2523 145.052 45.2523 146.332 46.5476L171.507 72.0213C172.787 73.3166 172.787 75.4389 171.506 76.7358L146.331 102.207C145.051 103.503 142.954 103.503 141.673 102.207L116.498 76.7358C115.217 75.4394 115.217 73.3172 116.498 72.0213H116.499H116.499Z" fill="#0B2027" fill-opacity="0.2"/>
<path d="M143.835 80.4085C144.28 80.8593 144.503 81.3286 144.503 81.8179C144.503 82.3444 144.299 82.8044 143.891 83.1983C143.482 83.5938 143.017 83.7916 142.497 83.7916C142.014 83.7916 141.531 83.5846 141.048 83.1707L131.463 73.7539C130.869 73.2652 130.571 72.7391 130.571 72.1757C130.571 71.5354 130.887 70.9355 131.518 70.3711L141.158 61.0116C141.603 60.5229 142.124 60.2781 142.717 60.2781C143.2 60.2781 143.628 60.4574 143.999 60.8138C144.371 61.1726 144.557 61.5946 144.557 62.0817C144.557 62.5325 144.334 63.0212 143.888 63.5471L134.916 72.1176L143.832 80.4064L143.834 80.4076L143.835 80.4085Z" fill="#0B2027" fill-opacity="0.2"/>
<path d="M144.169 85.0933C143.724 85.5451 143.501 86.0144 143.501 86.5015C143.501 87.0292 143.704 87.4886 144.113 87.8819C144.521 88.2774 144.986 88.4752 145.506 88.4752C145.988 88.4752 146.472 88.2682 146.955 87.8531L156.54 78.4387C157.134 77.9488 157.432 77.4239 157.432 76.8604C157.432 76.2211 157.117 75.6202 156.483 75.0556L146.843 65.6954C146.398 65.2067 145.877 64.9617 145.284 64.9617C144.801 64.9617 144.373 65.141 144.003 65.4976C143.631 65.8541 143.445 66.2772 143.445 66.7653C143.445 67.2161 143.669 67.7054 144.114 68.2309L153.086 76.8014L144.17 85.0902L144.171 85.0912L144.169 85.0933Z" fill="#0B2027" fill-opacity="0.2"/>
</g>
<defs>
<clipPath id="clip0_139_1691">
<rect width="288" height="148" rx="8" fill="white"/>
</clipPath>
</defs>
</svg>
