<svg width="124" height="126" viewBox="0 0 124 126" fill="none" xmlns="http://www.w3.org/2000/svg">
<path fill-rule="evenodd" clip-rule="evenodd" d="M4.22192 53.8541L52.7703 4.72931C57.8735 -0.431255 66.2198 -0.431255 71.321 4.72931L119.869 53.8541C124.971 59.0154 124.971 67.4619 119.868 72.6236L71.3187 121.748C66.2179 126.912 57.8693 126.912 52.7662 121.748L4.21777 72.6259C-0.883461 67.4642 -0.883461 59.0166 4.21777 53.8541H4.21966H4.22192ZM9.05896 58.6983L57.5616 9.6204C60.0282 7.12478 64.0696 7.12478 66.5361 9.6204L115.039 58.6983C117.505 61.1939 117.505 65.2826 115.037 67.7813L66.5342 116.855C64.0677 119.351 60.0282 119.351 57.5594 116.855L9.05783 67.7813C6.58942 65.2838 6.58942 61.1951 9.05783 58.6983H9.0601H9.05896Z" fill="#00C996"/>
<path d="M61.7253 74.8574C62.5832 75.7259 63.0122 76.63 63.0122 77.5726C63.0122 78.587 62.6199 79.4733 61.833 80.2322C61.0457 80.9942 60.1492 81.3751 59.1472 81.3751C58.2182 81.3751 57.2862 80.9764 56.3572 80.1789L37.8889 62.0364C36.7449 61.095 36.1719 60.0813 36.1719 58.9958C36.1719 57.7622 36.7792 56.6064 37.9955 55.519L56.5677 37.4869C57.426 36.5454 58.4291 36.0737 59.5728 36.0737C60.5018 36.0737 61.3277 36.4192 62.0416 37.1059C62.7578 37.7972 63.1169 38.6102 63.1169 39.5486C63.1169 40.4172 62.6868 41.3586 61.8288 42.3719L44.5431 58.8839L61.72 74.8532L61.7241 74.8555L61.7253 74.8574Z" fill="#00C996"/>
<path d="M62.3702 83.8831C61.5123 84.7535 61.0822 85.6576 61.0822 86.596C61.0822 87.6127 61.4745 88.4979 62.2618 89.2557C63.0487 90.0176 63.9433 90.3986 64.9452 90.3986C65.8742 90.3986 66.8063 89.9998 67.7375 89.2001L86.2035 71.0621C87.3476 70.1184 87.9225 69.107 87.9225 68.0215C87.9225 66.7898 87.3151 65.6321 86.0951 64.5443L67.5225 46.5107C66.6645 45.5692 65.6614 45.0972 64.5174 45.0972C63.5884 45.0972 62.7625 45.4426 62.0509 46.1297C61.3327 46.8165 60.9756 47.6317 60.9756 48.5721C60.9756 49.4406 61.4057 50.3832 62.2636 51.3958L79.5493 67.9078L62.3721 83.877L62.3744 83.8789L62.3702 83.8831Z" fill="#00C996"/>
</svg>
