<svg width="22" height="22" viewBox="0 0 22 22" fill="none" xmlns="http://www.w3.org/2000/svg">
<path d="M17 17.4996C17 16.4534 17 15.9292 16.8706 15.5039C16.5793 14.5454 15.8289 13.7951 14.8704 13.5037C14.4452 13.3743 13.921 13.3743 12.8748 13.3743H9.12524C8.0779 13.3743 7.55479 13.3743 7.12955 13.5037C6.16995 13.7951 5.4196 14.5454 5.12936 15.5039C4.99999 15.9292 5 16.4534 5 17.4996M14.3743 7.3749C14.3743 9.23897 12.8635 10.7498 10.9994 10.7498C9.13649 10.7498 7.62454 9.23897 7.62454 7.3749C7.62454 5.51083 9.13649 4 10.9994 4C12.8635 4 14.3743 5.51083 14.3743 7.3749Z" stroke="#0B2027" stroke-width="1.12497" stroke-linecap="round" stroke-linejoin="round"/>
</svg>
