<svg width="16" height="16" viewBox="0 0 16 16" fill="none" xmlns="http://www.w3.org/2000/svg">
<path d="M5.33236 2.66659H13.999V3.99992H5.33236V2.66659ZM2.99902 4.33325C2.44674 4.33325 1.99902 3.88554 1.99902 3.33325C1.99902 2.78097 2.44674 2.33325 2.99902 2.33325C3.55131 2.33325 3.99902 2.78097 3.99902 3.33325C3.99902 3.88554 3.55131 4.33325 2.99902 4.33325ZM2.99902 8.99992C2.44674 8.99992 1.99902 8.55219 1.99902 7.99992C1.99902 7.44765 2.44674 6.99992 2.99902 6.99992C3.55131 6.99992 3.99902 7.44765 3.99902 7.99992C3.99902 8.55219 3.55131 8.99992 2.99902 8.99992ZM2.99902 13.5999C2.44674 13.5999 1.99902 13.1522 1.99902 12.5999C1.99902 12.0477 2.44674 11.5999 2.99902 11.5999C3.55131 11.5999 3.99902 12.0477 3.99902 12.5999C3.99902 13.1522 3.55131 13.5999 2.99902 13.5999ZM5.33236 7.33325H13.999V8.66659H5.33236V7.33325ZM5.33236 11.9999H13.999V13.3333H5.33236V11.9999Z" fill="#0B2027" fill-opacity="0.6"/>
</svg>
