<svg width="22" height="22" viewBox="0 0 22 22" fill="none" xmlns="http://www.w3.org/2000/svg">
<path d="M11 6.49962C11.4142 6.49962 11.7501 6.16438 11.7501 5.74926C11.7501 5.33526 11.4142 5 11 5C10.5858 5 10.25 5.33526 10.25 5.74926C10.25 6.16438 10.5858 6.49962 11 6.49962Z" stroke="#0B2027" stroke-width="1.12499" stroke-linecap="round" stroke-linejoin="round"/>
<path d="M11 11.7497C11.4142 11.7497 11.7501 11.4134 11.7501 10.9994C11.7501 10.5854 11.4142 10.249 11 10.249C10.5858 10.249 10.25 10.5854 10.25 10.9994C10.25 11.4134 10.5858 11.7497 11 11.7497Z" stroke="#0B2027" stroke-width="1.12499" stroke-linecap="round" stroke-linejoin="round"/>
<path d="M11 16.9996C11.4142 16.9996 11.7501 16.6644 11.7501 16.2504C11.7501 15.8352 11.4142 15.5 11 15.5C10.5858 15.5 10.25 15.8352 10.25 16.2504C10.25 16.6644 10.5858 16.9996 11 16.9996Z" stroke="#0B2027" stroke-width="1.12499" stroke-linecap="round" stroke-linejoin="round"/>
<path d="M16.25 6.49962C16.6642 6.49962 16.9999 6.16438 16.9999 5.74926C16.9999 5.33526 16.6642 5 16.25 5C15.8358 5 15.5 5.33526 15.5 5.74926C15.5 6.16438 15.8358 6.49962 16.25 6.49962Z" stroke="#0B2027" stroke-width="1.12499" stroke-linecap="round" stroke-linejoin="round"/>
<path d="M16.25 11.7497C16.6642 11.7497 16.9999 11.4134 16.9999 10.9994C16.9999 10.5854 16.6642 10.249 16.25 10.249C15.8358 10.249 15.5 10.5854 15.5 10.9994C15.5 11.4134 15.8358 11.7497 16.25 11.7497Z" stroke="#0B2027" stroke-width="1.12499" stroke-linecap="round" stroke-linejoin="round"/>
<path d="M16.25 16.9996C16.6642 16.9996 16.9999 16.6644 16.9999 16.2504C16.9999 15.8352 16.6642 15.5 16.25 15.5C15.8358 15.5 15.5 15.8352 15.5 16.2504C15.5 16.6644 15.8358 16.9996 16.25 16.9996Z" stroke="#0B2027" stroke-width="1.12499" stroke-linecap="round" stroke-linejoin="round"/>
<path d="M5.74992 6.49962C6.16414 6.49962 6.49994 6.16438 6.49994 5.74926C6.49994 5.33526 6.16414 5 5.74992 5C5.33581 5 5 5.33526 5 5.74926C5 6.16438 5.33581 6.49962 5.74992 6.49962Z" stroke="#0B2027" stroke-width="1.12499" stroke-linecap="round" stroke-linejoin="round"/>
<path d="M5.74992 11.7497C6.16414 11.7497 6.49994 11.4134 6.49994 10.9994C6.49994 10.5854 6.16414 10.249 5.74992 10.249C5.33581 10.249 5 10.5854 5 10.9994C5 11.4134 5.33581 11.7497 5.74992 11.7497Z" stroke="#0B2027" stroke-width="1.12499" stroke-linecap="round" stroke-linejoin="round"/>
<path d="M5.74992 16.9996C6.16414 16.9996 6.49994 16.6644 6.49994 16.2504C6.49994 15.8352 6.16414 15.5 5.74992 15.5C5.33581 15.5 5 15.8352 5 16.2504C5 16.6644 5.33581 16.9996 5.74992 16.9996Z" stroke="#0B2027" stroke-width="1.12499" stroke-linecap="round" stroke-linejoin="round"/>
<path d="M11 11.7497C11.4142 11.7497 11.7501 11.4134 11.7501 10.9994C11.7501 10.5854 11.4142 10.249 11 10.249C10.5858 10.249 10.25 10.5854 10.25 10.9994C10.25 11.4134 10.5858 11.7497 11 11.7497Z" stroke="#00D29D" stroke-width="1.12499" stroke-linecap="round" stroke-linejoin="round"/>
<path d="M16.25 11.7497C16.6642 11.7497 16.9999 11.4134 16.9999 10.9994C16.9999 10.5854 16.6642 10.249 16.25 10.249C15.8358 10.249 15.5 10.5854 15.5 10.9994C15.5 11.4134 15.8358 11.7497 16.25 11.7497Z" stroke="#00D29D" stroke-width="1.12499" stroke-linecap="round" stroke-linejoin="round"/>
<path d="M5.74992 11.7497C6.16414 11.7497 6.49994 11.4134 6.49994 10.9994C6.49994 10.5854 6.16414 10.249 5.74992 10.249C5.33581 10.249 5 10.5854 5 10.9994C5 11.4134 5.33581 11.7497 5.74992 11.7497Z" stroke="#00D29D" stroke-width="1.12499" stroke-linecap="round" stroke-linejoin="round"/>
</svg>
