<svg width="22" height="22" viewBox="0 0 22 22" fill="none" xmlns="http://www.w3.org/2000/svg">
<path d="M6.79933 6.80037L9.94936 9.9504M6.79933 6.80037H4.69931L4 4.70035L4.69931 4L6.79933 4.70035V6.80037ZM10.9994 13.1004L14.8498 16.9508C15.4294 17.5304 16.3702 17.5304 16.9498 16.9508C17.5294 16.3702 17.5294 15.4304 16.9498 14.8508L13.7829 11.6829" stroke="#00D29D" stroke-width="1.05001" stroke-linecap="round" stroke-linejoin="round"/>
<path d="M10.9996 13.1004L12.3583 11.7427C12.5578 11.5432 12.856 11.4887 13.129 11.5632C13.3401 11.621 13.5585 11.6619 13.7832 11.6829M16.0816 4.51872L14.242 6.35829C13.9648 6.6355 13.8262 6.77413 13.7748 6.93373C13.7286 7.07444 13.7286 7.22562 13.7748 7.36633C13.8262 7.52698 13.9648 7.66559 14.242 7.94279L14.4079 8.10865C14.6851 8.38585 14.8237 8.52446 14.9833 8.57591C15.124 8.62211 15.2763 8.62211 15.4159 8.57591C15.5766 8.52446 15.7152 8.38585 15.9924 8.10865L17.7123 6.38771C17.8982 6.83921 18 7.33272 18 7.85038C18 9.97665 16.2759 11.7008 14.1496 11.7008C13.8934 11.7008 13.6435 11.6755 13.401 11.6272C13.0608 11.56 12.8907 11.5264 12.7878 11.5369C12.6775 11.5485 12.624 11.5642 12.5263 11.6167C12.435 11.665 12.3436 11.7575 12.1599 11.9402L7.15026 16.9508C6.5696 17.5304 5.62984 17.5304 5.05024 16.9508C4.46958 16.3702 4.46958 15.4304 5.05024 14.8508L10.0598 9.84017C10.2436 9.65747 10.3349 9.56507 10.3843 9.47372C10.4357 9.37711 10.4525 9.32246 10.463 9.21326C10.4735 9.11036 10.4399 8.9403 10.3727 8.59905C10.3255 8.35755 10.3003 8.10658 10.3003 7.85038C10.3003 5.72411 12.0234 4 14.1496 4C14.8542 4 15.5136 4.18902 16.0816 4.51872Z" stroke="#0B2027" stroke-width="1.05001" stroke-linecap="round" stroke-linejoin="round"/>
</svg>
