<svg width="22" height="22" viewBox="0 0 22 22" fill="none" xmlns="http://www.w3.org/2000/svg">
<path d="M9.64507 16.5164L9.25423 15.6362C9.11456 15.3217 8.87943 15.0605 8.58102 14.8886C8.28361 14.7168 7.93898 14.6435 7.59635 14.6786L6.63881 14.7811C6.35346 14.8113 6.0661 14.758 5.81089 14.6274C5.55468 14.4978 5.34266 14.2958 5.19898 14.0477C5.0553 13.7995 4.98698 13.5151 5.00205 13.2288C5.01712 12.9424 5.11559 12.6671 5.28439 12.435L5.85108 11.6563C6.05303 11.378 6.16255 11.0424 6.16255 10.6988C6.16255 10.3551 6.05303 10.0195 5.85108 9.74122L5.28439 8.96253C5.11559 8.73043 5.01712 8.45512 5.00205 8.16876C4.98698 7.8824 5.0553 7.59805 5.19898 7.34987C5.34266 7.10069 5.55467 6.89973 5.80988 6.76911C6.0661 6.6395 6.35346 6.58627 6.63881 6.61641L7.59937 6.71889C7.942 6.75406 8.28663 6.68069 8.58404 6.50888C8.88045 6.33706 9.11557 6.07483 9.25423 5.76134L9.64507 4.88116C9.76162 4.61892 9.95152 4.39586 10.1927 4.24012C10.4328 4.08338 10.7131 4 11.0005 4C11.2869 4 11.5672 4.08338 11.8083 4.24012C12.0485 4.39586 12.2384 4.61892 12.3549 4.88116L12.7488 5.76134C12.8875 6.07483 13.1226 6.33706 13.419 6.50888C13.7174 6.68069 14.062 6.75406 14.4036 6.71889L15.3612 6.61641C15.6465 6.58627 15.9349 6.6395 16.1901 6.76911C16.4453 6.89973 16.6573 7.10069 16.801 7.34987C16.9447 7.59805 17.013 7.8824 16.998 8.16876C16.9829 8.45512 16.8844 8.73043 16.7166 8.96253L16.1489 9.74122C15.947 10.0195 15.8374 10.3551 15.8374 10.6988C15.8364 11.0434 15.9439 11.38 16.1459 11.6593L16.7136 12.439C16.8814 12.6711 16.9799 12.9464 16.9949 13.2328C17.01 13.5191 16.9417 13.8035 16.798 14.0517C16.6543 14.2998 16.4423 14.5018 16.1871 14.6314C15.9319 14.762 15.6435 14.8153 15.3582 14.7851L14.4006 14.6827C14.059 14.6465 13.7144 14.7198 13.416 14.8917C13.1196 15.0635 12.8854 15.3237 12.7458 15.6362L12.3549 16.5164C12.2384 16.7786 12.0485 17.0017 11.8083 17.1574C11.5672 17.3141 11.2869 17.3975 11.0005 17.3975C10.7131 17.3975 10.4328 17.3141 10.1927 17.1574C9.95152 17.0017 9.76162 16.7786 9.64507 16.5164Z" stroke="#0B2027" stroke-width="1.00477" stroke-linecap="round" stroke-linejoin="round"/>
<path d="M10.9983 12.7083C12.1086 12.7083 13.0078 11.809 13.0078 10.6987C13.0078 9.58847 12.1086 8.68921 10.9983 8.68921C9.88904 8.68921 8.98877 9.58847 8.98877 10.6987C8.98877 11.809 9.88904 12.7083 10.9983 12.7083Z" stroke="#00C08B" stroke-width="1.00477" stroke-linecap="round" stroke-linejoin="round"/>
</svg>
