<svg width="22" height="22" viewBox="0 0 22 22" fill="none" xmlns="http://www.w3.org/2000/svg">
<mask id="mask0_749_1588" style="mask-type:luminance" maskUnits="userSpaceOnUse" x="3" y="3" width="16" height="17">
<path d="M19 3.10693H3V19.1069H19V3.10693Z" fill="white"/>
</mask>
<g mask="url(#mask0_749_1588)">
<path d="M10.3335 9.10693H15.0003M15.0003 9.10693C15.0003 9.93493 15.6719 10.6069 16.5003 10.6069C17.3288 10.6069 18.0003 9.93493 18.0003 9.10693C18.0003 8.27893 17.3288 7.60693 16.5003 7.60693C15.6719 7.60693 15.0003 8.27893 15.0003 9.10693ZM13.3336 13.1069H16.667M13.3336 13.1069C13.3336 13.9349 12.662 14.6069 11.8336 14.6069C11.0051 14.6069 10.3335 13.9349 10.3335 13.1069C10.3335 12.2789 11.0051 11.6069 11.8336 11.6069C12.662 11.6069 13.3336 12.2789 13.3336 13.1069Z" stroke="#00D29D" stroke-linecap="round" stroke-linejoin="round"/>
<path d="M10.7152 17.7739C10.3937 17.7739 10.0854 17.6459 9.8581 17.4189C9.6308 17.1909 9.5031 16.883 9.5031 16.562V16.507C9.4984 16.306 9.4334 16.1119 9.3167 15.9489C9.2 15.7849 9.0368 15.6609 8.8485 15.5919C8.6657 15.5109 8.4629 15.4869 8.2663 15.5229C8.0697 15.5579 7.8883 15.6519 7.7455 15.7919L7.7091 15.8279C7.5966 15.9409 7.4629 16.0299 7.3157 16.0909C7.1686 16.1519 7.0108 16.184 6.8515 16.184C6.6923 16.184 6.5345 16.1519 6.3874 16.0909C6.2402 16.0299 6.1065 15.9409 5.994 15.8279C5.8813 15.7159 5.7919 15.5819 5.7309 15.4349C5.6699 15.2879 5.6385 15.1299 5.6385 14.9709C5.6385 14.8109 5.6699 14.6539 5.7309 14.5059C5.7919 14.3589 5.8813 14.2259 5.994 14.1129L6.0303 14.0769C6.1701 13.9339 6.2638 13.7519 6.2994 13.5559C6.3351 13.3589 6.311 13.1559 6.2303 12.9739C6.1535 12.7939 6.0259 12.6419 5.8633 12.5339C5.7007 12.4259 5.5102 12.3679 5.3152 12.3679H5.2122C4.8907 12.3679 4.5824 12.2399 4.3551 12.0129C4.1277 11.7849 4 11.4769 4 11.1549C4 10.8339 4.1277 10.5259 4.3551 10.2979C4.5824 10.0709 4.8907 9.94293 5.2122 9.94293H5.2667C5.4673 9.93893 5.6619 9.87396 5.8251 9.75696C5.9883 9.63996 6.1126 9.47694 6.1819 9.28894C6.2625 9.10594 6.2866 8.90291 6.2509 8.70691C6.2153 8.50991 6.1216 8.32891 5.9819 8.18591L5.9455 8.14893C5.8328 8.03693 5.7434 7.90292 5.6824 7.75592C5.6214 7.60892 5.59 7.45093 5.59 7.29193C5.59 7.13293 5.6214 6.97494 5.6824 6.82794C5.7434 6.68094 5.8328 6.54696 5.9455 6.43396C6.0581 6.32196 6.1917 6.23196 6.3389 6.17096C6.486 6.10996 6.6438 6.07892 6.8031 6.07892C6.9624 6.07892 7.1201 6.10996 7.2672 6.17096C7.4144 6.23196 7.5481 6.32196 7.6606 6.43396L7.697 6.47095C7.8398 6.60995 8.0213 6.70393 8.2179 6.73993C8.4145 6.77493 8.6172 6.75096 8.8 6.67096H8.8485C9.0278 6.59396 9.1807 6.46596 9.2883 6.30396C9.396 6.14096 9.4538 5.95094 9.4546 5.75494V5.65192C9.4546 5.33092 9.5823 5.02292 9.8096 4.79492C10.0369 4.56792 10.3452 4.43994 10.6667 4.43994" stroke="#0B2027" stroke-linecap="round" stroke-linejoin="round"/>
</g>
</svg>
