<svg width="22" height="22" viewBox="0 0 22 22" fill="none" xmlns="http://www.w3.org/2000/svg">
<path d="M10.2997 5.75024H15.4096C16.1937 5.75024 16.5858 5.75023 16.8853 5.90248C17.1487 6.03688 17.3628 6.25109 17.4971 6.51464C17.6497 6.81389 17.6497 7.20659 17.6497 7.98989V8.90025C17.6497 9.5523 17.6497 9.87886 17.5431 10.1361C17.401 10.4795 17.1285 10.7514 16.7854 10.8942C16.5282 11.0002 16.2019 11.0003 15.5497 11.0003M11.6996 16.2503H6.58958C5.80554 16.2503 5.41347 16.2503 5.11401 16.098C4.85056 15.9636 4.63647 15.7494 4.50217 15.4859C4.34961 15.1866 4.34961 14.7939 4.34961 14.0106V13.1003C4.34961 12.4482 4.34961 12.1217 4.45618 11.8644C4.59825 11.5211 4.87083 11.2491 5.21386 11.1063C5.47111 11.0003 5.79735 11.0003 6.44961 11.0003" stroke="#00D29D" stroke-width="1.05" stroke-linecap="round" stroke-linejoin="round"/>
<path d="M9.25 9.8107C9.25 9.61435 9.25 9.51671 9.28812 9.44111C9.32172 9.37601 9.37526 9.32244 9.4411 9.28884C9.51596 9.24999 9.61393 9.25 9.80996 9.25H12.19C12.386 9.25 12.484 9.24999 12.5589 9.28884C12.6247 9.32244 12.6783 9.37601 12.7119 9.44111C12.75 9.51671 12.75 9.61435 12.75 9.8107V12.19C12.75 12.3863 12.75 12.484 12.7119 12.5596C12.6783 12.6247 12.6247 12.6783 12.5589 12.7119C12.484 12.7507 12.386 12.7507 12.19 12.7507H9.80996C9.61393 12.7507 9.51596 12.7507 9.4411 12.7119C9.37526 12.6783 9.32172 12.6247 9.28812 12.5596C9.25 12.484 9.25 12.3863 9.25 12.19V9.8107Z" stroke="#0B2027" stroke-width="1.05" stroke-linecap="round" stroke-linejoin="round"/>
<path d="M14.5 15.0607C14.5 14.8643 14.5 14.7667 14.5381 14.6911C14.5717 14.626 14.6253 14.5724 14.6911 14.5388C14.766 14.5 14.8639 14.5 15.06 14.5H17.44C17.636 14.5 17.734 14.5 17.8089 14.5388C17.8747 14.5724 17.9283 14.626 17.9619 14.6911C18 14.7667 18 14.8643 18 15.0607V17.44C18 17.6363 18 17.734 17.9619 17.8096C17.9283 17.8747 17.8747 17.9283 17.8089 17.9619C17.734 18.0007 17.636 18.0007 17.44 18.0007H15.06C14.8639 18.0007 14.766 18.0007 14.6911 17.9619C14.6253 17.9283 14.5717 17.8747 14.5381 17.8096C14.5 17.734 14.5 17.6363 14.5 17.44V15.0607Z" stroke="#0B2027" stroke-width="1.05" stroke-linecap="round" stroke-linejoin="round"/>
<path d="M4 4.5607C4 4.36435 4 4.26671 4.03812 4.19111C4.07172 4.12601 4.12526 4.07244 4.1911 4.03884C4.26596 3.99999 4.36393 4 4.55996 4H6.94001C7.13604 4 7.23401 3.99999 7.30887 4.03884C7.37471 4.07244 7.42826 4.12601 7.46186 4.19111C7.49997 4.26671 7.49997 4.36435 7.49997 4.5607V6.93999C7.49997 7.13634 7.49997 7.23398 7.46186 7.30958C7.42826 7.37468 7.37471 7.42825 7.30887 7.46186C7.23401 7.50071 7.13604 7.50069 6.94001 7.50069H4.55996C4.36393 7.50069 4.26596 7.50071 4.1911 7.46186C4.12526 7.42825 4.07172 7.37468 4.03812 7.30958C4 7.23398 4 7.13634 4 6.93999V4.5607Z" stroke="#0B2027" stroke-width="1.05" stroke-linecap="round" stroke-linejoin="round"/>
</svg>
