<svg width="22" height="22" viewBox="0 0 22 22" fill="none" xmlns="http://www.w3.org/2000/svg">
<path d="M6.27452 4.00787L14.9336 4.00751C15.2345 4.00725 15.6625 3.9826 15.9477 4.02404C16.5663 4.11393 16.9696 4.63864 16.9833 5.24989C16.9963 5.82662 16.9865 6.40541 16.9862 6.98235C16.9861 7.23808 17.0109 7.65151 16.973 7.89236C16.9087 8.30139 16.3095 8.38938 16.1472 7.99492C16.0533 7.76661 16.1045 7.27455 16.1043 7.02314L16.1039 5.64711C16.1051 5.37232 16.2092 4.89876 15.8079 4.85988C15.5743 4.83724 15.3072 4.85802 15.0693 4.85807L8.33527 4.85785C8.72972 5.5101 8.65644 5.7598 8.65639 6.50534L8.65476 8.08851C8.65338 9.15191 9.4447 9.24795 10.2964 9.24765L15.8294 9.24722C16.0496 9.24817 16.5175 9.22166 16.7102 9.25649C17.0914 9.32542 16.9869 9.89758 16.9868 10.1761L16.9871 17.3564C16.9871 18.0963 16.7017 18.8213 15.8319 18.866C15.6098 18.8773 15.3824 18.8664 15.1596 18.8661L6.57543 18.8667C6.41196 18.8667 6.24353 18.8739 6.08139 18.8513C5.47729 18.7674 5.02584 18.2172 5.00563 17.6184C4.9948 17.297 5.00291 16.9727 5.003 16.6509L5.00269 5.60482C5.00287 4.70058 5.24032 4.03572 6.27452 4.00787ZM6.27452 4.85785C5.76915 4.85595 5.87981 5.44833 5.88033 5.78739L5.88132 16.7154C5.8811 17.0677 5.73375 17.9671 6.21443 17.999C6.55129 18.0214 6.92928 18.002 7.2698 18.0017L15.688 18.0017C16.2409 17.9778 16.1049 17.4561 16.1039 17.035L16.1035 10.7324C16.103 10.5228 16.0886 10.3062 16.1042 10.0975L10.3234 10.0978C9.9944 10.0979 9.65219 10.1183 9.32813 10.0531C8.55362 9.89719 7.96465 9.2971 7.81032 8.5241C7.75009 8.22263 7.77303 7.89814 7.7732 7.59163L7.77389 6.34144C7.77402 6.09101 7.79885 5.81463 7.72203 5.57313C7.49337 4.85466 6.86608 4.85888 6.27452 4.85785Z" fill="#0B2027"/>
<path d="M11.5162 15.3992C11.6869 15.2299 11.8373 14.9987 12.1047 15.003C12.4905 15.0091 12.5881 15.3931 12.4499 15.6867C12.3321 15.8285 12.1978 15.9541 12.0673 16.084L11.4771 16.6677C11.2376 16.9028 10.868 17.456 10.4867 17.1587C10.3125 17.0229 10.2483 16.7606 10.3694 16.5696C10.5642 16.2621 11.2305 15.7353 11.5162 15.3992Z" fill="#0B2027"/>
<path d="M13.236 11.1057C15.1268 11.0634 15.2937 13.6085 13.4623 13.8857C11.617 13.9254 11.3489 11.4074 13.236 11.1057ZM13.3293 11.9717C12.6103 12.0555 12.7186 13.0122 13.3626 12.9971C14.0616 12.9365 14.0028 11.9745 13.3293 11.9717Z" fill="#00C08B"/>
<path d="M10.6905 14.5735C10.1709 15.1176 9.61581 15.6307 9.08297 16.1621L8.47392 16.7688C8.34985 16.8936 8.22634 17.0377 8.08597 17.1434C7.66319 17.4618 7.14785 16.9253 7.47527 16.5074C7.63935 16.298 7.8746 16.0967 8.06769 15.9095L8.90346 15.0892C9.38082 14.627 10.0766 13.7176 10.7403 13.7574C11.327 13.7925 11.6169 14.3489 12.0398 14.6659C12.6977 14.4653 13.391 15.389 13.8141 15.8073L14.3019 16.2958C14.3778 16.372 14.4612 16.4433 14.5316 16.5247C14.7329 16.7571 14.5748 17.0863 14.2886 17.1567C13.9573 17.2383 13.7603 16.942 13.5504 16.7442L12.4497 15.6867C12.588 15.3931 12.4904 15.0091 12.1045 15.003C11.8371 14.9988 11.6868 15.23 11.516 15.3992C11.2907 15.1984 10.8732 14.8063 10.6905 14.5735Z" fill="#00C08B"/>
</svg>
