<svg width="64" height="64" viewBox="0 0 64 64" fill="none" xmlns="http://www.w3.org/2000/svg">
<path d="M15.6993 32.4698C16.0045 32.4545 16.3223 32.4266 16.5951 32.5946C17.5006 33.1522 20.1101 35.9656 21.086 36.9113C21.7649 36.9082 23.2613 36.7993 23.8321 37.0519C25.0565 37.5939 24.8881 39.191 23.5539 39.6493C22.3901 39.6076 21.0256 39.7781 19.8934 39.6082C19.3729 39.53 18.8313 38.8188 18.4863 38.4651L15.8233 35.7949C15.4397 35.4114 15.0312 35.0361 14.7106 34.5969C14.5324 33.5413 14.5703 32.7919 15.6993 32.4698Z" fill="#0B2027"/>
<path d="M20.8691 8.74446L27.0794 8.74378C28.4577 8.74371 29.8692 8.67933 31.2415 8.80743C37.013 9.3462 41.834 14.2018 42.1621 20.0291C42.2916 22.3282 40.1132 22.37 39.4913 21.1857C39.2339 20.6957 39.278 19.9622 39.2091 19.4133C38.6512 14.9672 34.445 11.6086 30.0477 11.5747C28.104 11.5597 26.1567 11.5897 24.2125 11.5883C21.2163 11.5863 18.8161 11.3238 16.1094 12.9296C15.3559 13.3766 15.0605 13.4958 14.6514 14.2051C14.6349 14.2339 14.4551 14.2469 14.4165 14.2624C14.3315 14.2965 14.2481 14.3974 14.1828 14.462C11.8448 16.7799 11.6422 19.2793 11.6451 22.3285L11.6461 35.4457C11.6463 36.2048 11.6036 36.9873 11.6847 37.7422C12.1053 41.6543 15.5895 45.0973 19.479 45.5792C20.4215 45.696 21.392 45.6523 22.3409 45.6519L26.3161 45.6514C26.6064 46.7187 26.9185 47.4966 27.3208 48.518C24.7963 48.4625 21.4724 48.7404 19.0467 48.3974C13.4224 47.6021 8.7843 42.608 8.73239 36.8718L8.73135 22.7641C8.73148 21.6868 8.69916 20.592 8.81483 19.5197C9.47891 13.3636 14.7028 8.7783 20.8691 8.74446Z" fill="#0B2027"/>
<path d="M41.6079 27.815L41.6637 27.8121C45.8546 27.6096 49.9585 29.7495 52.4956 33.0336C59.1058 41.5897 53.2202 54.2305 42.1679 54.6533C34.8805 54.9537 28.5113 48.7731 28.4298 41.5154C28.347 34.1272 34.1024 27.8901 41.6079 27.815ZM41.2562 30.674C40.4064 30.7912 39.5569 30.9209 38.7345 31.1716C33.1432 32.8759 30.1416 39.007 32.0208 44.5259C33.5875 49.1275 37.685 51.773 42.5181 51.6049C48.4442 50.9401 52.9029 46.049 52.1938 39.9577C51.571 34.6083 46.7067 30.2883 41.2562 30.674Z" fill="#00C08B"/>
<path d="M41.8867 34.9668C43.5828 34.9697 43.4913 36.4268 43.4917 37.6928C43.4918 38.3778 43.5036 39.0631 43.4922 39.7481L45.9155 39.7483C46.4213 39.7477 46.9969 39.6886 47.4916 39.8C48.6311 40.0568 49.1145 41.4942 48.2895 42.3422C47.6856 42.963 46.7618 42.8191 45.9803 42.8187L43.4922 42.818L43.4944 45.0038C43.4956 46.3113 43.5004 47.3754 42.019 47.7335C40.2721 47.7673 40.3635 46.4847 40.3641 45.1301L40.3643 42.818L37.8877 42.8183C37.108 42.8229 36.2008 42.9986 35.5764 42.4127C34.9784 41.8517 34.9887 40.7437 35.5684 40.1735C36.162 39.5896 37.1221 39.7475 37.8763 39.7476L40.3643 39.7481L40.3637 37.7437C40.3523 36.4402 40.2374 35.1309 41.8867 34.9668Z" fill="#00C08B"/>
</svg>
