<svg width="22" height="22" viewBox="0 0 22 22" fill="none" xmlns="http://www.w3.org/2000/svg">
<path d="M9.43993 3.01188L11.601 3.01165C12.3497 3.01075 13.1371 2.88737 13.7171 3.46483C14.2416 3.9869 14.1458 4.63176 14.1451 5.30347L15.6504 5.30303C16.0269 5.30298 16.6153 5.26575 16.9655 5.36707C18.2689 5.74405 18.3815 7.45317 17.07 8.14713C17.0821 8.28809 17.0741 8.43241 17.0703 8.57373L16.9579 13.5956C16.9423 14.2877 16.9627 15.8859 16.831 16.4552C16.5521 17.6604 15.5514 18.5583 14.3104 18.6558C14.0926 18.6729 13.8735 18.6681 13.6551 18.6681L12.5887 18.6678L8.23259 18.6682C6.7713 18.6671 5.52754 17.9131 5.20645 16.4004C5.09855 15.892 5.12988 15.1806 5.12581 14.6585L5.0534 10.5664C5.03384 9.76022 5.01102 8.9538 5.01183 8.14713C4.01589 7.70512 3.62724 6.53963 4.43539 5.73017C4.94734 5.21737 5.51505 5.30334 6.17871 5.30343L7.89947 5.30347L7.89889 4.71728C7.89799 3.69969 8.37593 3.04531 9.43993 3.01188ZM5.99559 8.21018C5.94497 8.57418 5.98968 9.47609 5.99675 9.86533L6.088 13.9184C6.10867 14.6081 6.06365 15.5329 6.15776 16.157C6.27779 16.9528 6.95442 17.5892 7.74875 17.6929C8.07981 17.7362 8.51005 17.7101 8.85275 17.7099L13.1185 17.7094C13.9502 17.7096 14.8022 17.8178 15.402 17.1048C15.9039 16.5198 15.8751 16.03 15.8855 15.3096L16.0254 9.49932C16.0379 9.07056 16.0568 8.63907 16.0431 8.21018H5.99559ZM5.41996 6.26687C4.95683 6.35015 4.78346 6.9316 5.21714 7.18762C5.37883 7.28307 5.57649 7.25121 5.7555 7.25085L16.5651 7.24759C16.8595 7.19111 17.0644 6.96534 16.9944 6.6554C16.8913 6.19813 16.3864 6.26508 16.0325 6.26687H5.41996ZM9.32854 3.96672C8.72611 4.09739 8.87011 4.84169 8.87159 5.30347H12.7146H13.1566C13.1596 4.48668 13.3553 3.9699 12.3154 3.96659L9.66145 3.96551C9.55154 3.96515 9.43796 3.95741 9.32854 3.96672Z" fill="#0B2027"/>
<path d="M9.19398 10.1594C9.8592 10.1621 9.6998 10.9201 9.69993 11.3651L9.69984 14.6251C9.69975 15.074 9.86851 15.8964 9.26298 15.9562C8.59087 15.9875 8.76204 15.1015 8.76195 14.6591L8.76168 11.3574C8.76173 10.8996 8.59436 10.2335 9.19398 10.1594Z" fill="#00D29D"/>
<path d="M12.758 10.1594C13.3876 10.1118 13.2789 10.707 13.2789 11.1025L13.2789 14.3854C13.2788 14.8844 13.4721 15.8085 12.8852 15.9562C12.1941 15.9974 12.3397 15.249 12.3396 14.7935L12.3393 11.5366C12.3394 11.0715 12.1648 10.2681 12.758 10.1594Z" fill="#00D29D"/>
</svg>
