<svg width="16" height="16" viewBox="0 0 16 16" fill="none" xmlns="http://www.w3.org/2000/svg">
<path d="M12.2442 10.3573L11.3014 9.41449L12.2442 8.47169C13.5459 7.16995 13.5459 5.05939 12.2442 3.75765C10.9424 2.45589 8.83183 2.45589 7.53009 3.75765L6.58729 4.70045L5.64448 3.75765L6.58729 2.81483C8.40976 0.992386 11.3645 0.992386 13.187 2.81483C15.0094 4.63728 15.0094 7.59202 13.187 9.41449L12.2442 10.3573ZM10.3585 12.243L9.41569 13.1858C7.59329 15.0082 4.6385 15.0082 2.81605 13.1858C0.993607 11.3633 0.993607 8.40849 2.81605 6.58607L3.75886 5.64326L4.70167 6.58607L3.75886 7.52889C2.45711 8.83062 2.45711 10.9412 3.75886 12.243C5.06061 13.5447 7.17116 13.5447 8.47289 12.243L9.41569 11.3001L10.3585 12.243ZM9.88709 5.17186L10.83 6.11467L6.11589 10.8287L5.17307 9.88589L9.88709 5.17186Z" fill="#0B2027" fill-opacity="0.6"/>
</svg>
