<svg width="32" height="32" viewBox="0 0 32 32" fill="none" xmlns="http://www.w3.org/2000/svg">
<path fill-rule="evenodd" clip-rule="evenodd" d="M1.98901 13.7534L13.7331 1.86987C14.9676 0.621502 16.9866 0.621502 18.2206 1.86987L29.9647 13.7534C31.1987 15.0019 31.1987 17.0452 29.9642 18.2938L18.2201 30.1773C16.9861 31.4264 14.9666 31.4264 13.7321 30.1773L1.98801 18.2944C0.753997 17.0457 0.753997 15.0022 1.98801 13.7534H1.98847H1.98901ZM3.15912 14.9252L14.8921 3.05305C15.4888 2.44934 16.4665 2.44934 17.0631 3.05305L28.7961 14.9252C29.3928 15.5289 29.3928 16.518 28.7956 17.1224L17.0627 28.9936C16.466 29.5973 15.4888 29.5973 14.8916 28.9936L3.15884 17.1224C2.56172 16.5183 2.56172 15.5292 3.15884 14.9252H3.15939H3.15912Z" fill="#00C996"/>
<path d="M15.8993 18.8351C16.1068 19.0452 16.2106 19.2639 16.2106 19.4919C16.2106 19.7373 16.1157 19.9517 15.9253 20.1353C15.7349 20.3196 15.518 20.4118 15.2756 20.4118C15.0509 20.4118 14.8254 20.3153 14.6007 20.1224L10.1331 15.7336C9.85638 15.5059 9.71777 15.2607 9.71777 14.9981C9.71777 14.6997 9.8647 14.4201 10.1589 14.157L14.6516 9.79498C14.8593 9.56723 15.1019 9.45312 15.3786 9.45312C15.6033 9.45312 15.8031 9.53669 15.9758 9.70282C16.149 9.87004 16.2359 10.0667 16.2359 10.2937C16.2359 10.5038 16.1319 10.7316 15.9243 10.9767L11.7428 14.971L15.898 18.8341L15.899 18.8346L15.8993 18.8351Z" fill="#00C996"/>
<path d="M16.0556 21.0173C15.8481 21.2278 15.744 21.4465 15.744 21.6735C15.744 21.9195 15.8389 22.1336 16.0294 22.3169C16.2197 22.5012 16.4362 22.5934 16.6785 22.5934C16.9033 22.5934 17.1287 22.4969 17.354 22.3035L21.821 17.9158C22.0978 17.6875 22.2368 17.4429 22.2368 17.1803C22.2368 16.8823 22.0899 16.6023 21.7948 16.3391L17.302 11.9767C17.0944 11.749 16.8518 11.6348 16.575 11.6348C16.3503 11.6348 16.1505 11.7183 15.9784 11.8845C15.8047 12.0507 15.7183 12.2479 15.7183 12.4754C15.7183 12.6855 15.8223 12.9135 16.0298 13.1584L20.2113 17.1528L16.0561 21.0158L16.0566 21.0163L16.0556 21.0173Z" fill="#00C996"/>
</svg>
