<svg width="360" height="32" viewBox="0 0 360 32" fill="none" xmlns="http://www.w3.org/2000/svg">
<g clip-path="url(#clip0_1592_4341)">
<path fill-rule="evenodd" clip-rule="evenodd" d="M0.839557 13.9281L11.6921 2.94674C12.8329 1.79314 14.6986 1.79314 15.8389 2.94674L26.6915 13.9281C27.8318 15.0819 27.8318 16.9701 26.691 18.1239L15.8385 29.1053C14.6982 30.2596 12.832 30.2596 11.6912 29.1053L0.838623 18.1244C-0.301677 16.9705 -0.301677 15.0822 0.838623 13.9281H0.83909H0.839557ZM1.92082 15.011L12.7631 4.04014C13.3145 3.48224 14.218 3.48224 14.7693 4.04014L25.6116 15.011C26.163 15.5689 26.163 16.4829 25.6112 17.0415L14.7689 28.0114C14.2175 28.5693 13.3145 28.5693 12.7627 28.0114L1.92059 17.0415C1.36876 16.4831 1.36876 15.5691 1.92059 15.011H1.92106H1.92082Z" fill="#00C08B"/>
<path d="M41.1408 10.6179C41.1408 10.494 41.1606 10.382 41.1991 10.2844C41.2388 10.1834 41.2992 10.0978 41.3795 10.0282C41.4567 9.96032 41.5426 9.90945 41.6375 9.87608C41.732 9.84248 41.8333 9.82568 41.9423 9.82568C42.045 9.82568 42.143 9.84295 42.2347 9.87632C42.3264 9.91038 42.4101 9.96148 42.4869 10.028C42.6458 10.1666 42.7256 10.3575 42.7256 10.5997V16.6808C42.7256 17.2534 42.6602 17.7859 42.5305 18.278C42.4008 18.7712 42.205 19.2241 41.9446 19.6357C41.6851 20.045 41.3858 20.4041 41.0475 20.7128C40.7087 21.021 40.3297 21.2786 39.9121 21.4856C39.4953 21.6916 39.066 21.8463 38.624 21.9492C38.1812 22.0519 37.7255 22.1041 37.2579 22.1041C36.7898 22.1041 36.3341 22.0526 35.8912 21.9492C35.4502 21.8468 35.02 21.6921 34.6037 21.4856C34.1851 21.2781 33.8066 21.021 33.4683 20.7132C33.1295 20.405 32.8304 20.0459 32.5712 19.6362C32.311 19.225 32.115 18.7728 31.9853 18.2789C31.8555 17.7865 31.7906 17.2541 31.7906 16.6817V10.5455C31.7906 10.4321 31.8105 10.3302 31.8502 10.2403C31.8908 10.1482 31.9526 10.07 32.0336 10.0061C32.1103 9.94608 32.1941 9.90012 32.2851 9.87118C32.3752 9.84108 32.4713 9.82568 32.5735 9.82568C32.6815 9.82568 32.7826 9.84155 32.8766 9.87328C32.9723 9.90502 33.0584 9.95355 33.1342 10.0166C33.2149 10.0835 33.2758 10.1636 33.3155 10.2557C33.3552 10.3465 33.375 10.4499 33.375 10.5633V16.6815C33.375 17.0947 33.4205 17.4772 33.5122 17.8288C33.6029 18.1786 33.7395 18.4991 33.9208 18.7894C34.103 19.0801 34.3134 19.3359 34.5528 19.5557C34.792 19.7753 35.0597 19.9593 35.3558 20.1075C35.6535 20.2561 35.961 20.3686 36.2777 20.4433C36.5938 20.5177 36.9207 20.5548 37.2579 20.5548C37.9306 20.5548 38.5648 20.4057 39.1605 20.1071C39.4564 19.9589 39.7247 19.7748 39.9634 19.5552C40.203 19.3356 40.4137 19.0792 40.595 18.7889C40.7768 18.4982 40.9131 18.1785 41.0038 17.8283C41.0946 17.4767 41.1406 17.0947 41.1406 16.681V10.6176L41.141 10.6181L41.1408 10.6179Z" fill="#00C08B"/>
<path d="M50.3824 9.97267C51.1734 9.97267 51.9028 10.1337 52.5716 10.4571C53.2403 10.78 53.7422 11.2418 54.0766 11.8412V7.24921C54.0766 7.00304 54.1603 6.80727 54.3276 6.66074C54.4947 6.51421 54.6923 6.44141 54.9205 6.44141C55.1485 6.44141 55.3426 6.51467 55.502 6.66074C55.6616 6.80727 55.7416 7.00257 55.7416 7.24921V21.0478C55.7416 21.2945 55.6658 21.4902 55.5141 21.6363C55.362 21.7824 55.1569 21.8556 54.8984 21.8556C54.3813 21.8556 54.123 21.5861 54.123 21.0481V20.1019C53.7583 20.779 53.2338 21.2788 52.5501 21.6018C51.866 21.9252 51.1438 22.0866 50.3829 22.0866C49.304 22.0866 48.323 21.8444 47.4408 21.36C46.5595 20.8752 45.856 20.1712 45.3319 19.2484C44.8074 18.3251 44.5447 17.2174 44.5447 15.9255C44.5447 15.0486 44.7388 14.1521 45.1266 13.237C45.5144 12.3216 46.1451 11.5484 47.0194 10.9181C47.8937 10.2874 49.0146 9.97197 50.3829 9.97197L50.3838 9.97291L50.3824 9.97267ZM50.5187 20.4948C51.5377 20.433 52.3854 20.0872 53.0613 19.4565C53.738 18.8253 54.0763 17.9877 54.0763 16.9409V15.1184C54.0763 14.1183 53.7345 13.2879 53.0499 12.6261C52.3662 11.9644 51.4994 11.6111 50.4506 11.5645C49.4013 11.5645 48.5617 11.7992 47.9306 12.2684C47.2994 12.7377 46.8551 13.3028 46.5966 13.9645C46.3376 14.6258 46.2083 15.2565 46.2083 15.8564C46.2083 16.9636 46.4363 17.8638 46.892 18.5561C47.3486 19.2481 47.907 19.7444 48.5687 20.0443C49.23 20.3443 49.8796 20.4941 50.5185 20.4941L50.5189 20.4946L50.5187 20.4948Z" fill="#00C08B"/>
<path d="M57.3494 11.0145C57.3176 10.951 57.3022 10.856 57.3022 10.7307C57.3022 10.4944 57.3963 10.2977 57.5827 10.1397C57.7694 9.98219 57.9873 9.90332 58.237 9.90332C58.3926 9.90332 58.5366 9.94252 58.6693 10.0216C58.8016 10.1005 58.8992 10.2188 58.9612 10.3768L63.4249 19.3865L67.9348 10.3534C67.9973 10.2113 68.0944 10.1012 68.2271 10.0221C68.3594 9.94322 68.5041 9.90379 68.66 9.90379C68.8784 9.90379 69.0767 9.97075 69.2559 10.1045C69.4353 10.2386 69.5249 10.4164 69.5249 10.6369C69.5249 10.7156 69.5016 10.8178 69.4545 10.944L64.1732 21.5614C64.0955 21.7347 63.9819 21.8684 63.8344 21.9632C63.6862 22.0579 63.5341 22.1053 63.3787 22.1053C63.0828 22.1053 62.8332 21.9324 62.6311 21.5852L57.3498 11.0154L57.3494 11.0149V11.0145Z" fill="#00C08B"/>
<path d="M13.6938 18.6229C13.8856 18.817 13.9815 19.0191 13.9815 19.2298C13.9815 19.4566 13.8938 19.6547 13.7178 19.8243C13.5419 19.9946 13.3415 20.0798 13.1175 20.0798C12.9098 20.0798 12.7014 19.9907 12.4938 19.8124L8.3654 15.7568C8.10967 15.5464 7.98157 15.3198 7.98157 15.0771C7.98157 14.8013 8.11737 14.543 8.3892 14.2999L12.5409 10.2691C12.7327 10.0586 12.9569 9.95312 13.2127 9.95312C13.4203 9.95312 13.6049 10.0304 13.7645 10.1839C13.9246 10.3384 14.0048 10.5201 14.0048 10.7299C14.0048 10.924 13.9087 11.1345 13.7169 11.3611L9.8529 15.0522L13.6926 18.6219L13.6936 18.6224L13.6938 18.6229Z" fill="#00C08B"/>
<path d="M13.838 20.6409C13.6462 20.8355 13.55 21.0376 13.55 21.2473C13.55 21.4746 13.6378 21.6725 13.8137 21.8419C13.9896 22.0122 14.1896 22.0974 14.4136 22.0974C14.6213 22.0974 14.8296 22.0082 15.0378 21.8295L19.1657 17.7749C19.4214 17.5639 19.55 17.3378 19.55 17.0952C19.55 16.8198 19.4142 16.5611 19.1414 16.3179L14.9897 12.2866C14.7979 12.0762 14.5737 11.9707 14.3179 11.9707C14.1103 11.9707 13.9257 12.0479 13.7666 12.2015C13.606 12.355 13.5262 12.5372 13.5262 12.7475C13.5262 12.9416 13.6224 13.1523 13.8142 13.3786L17.6782 17.0697L13.8384 20.6395L13.8389 20.64L13.838 20.6409Z" fill="#00C08B"/>
<path d="M88.738 21.0352C88.738 22.1043 88.4937 23.0167 88.0053 23.7727C87.5165 24.5287 86.8482 25.0973 86.001 25.4793C85.1535 25.8608 84.2029 26.0519 83.1492 26.0519C82.2331 26.0519 81.4276 25.9371 80.7323 25.7082C80.0377 25.4793 79.3923 25.0898 78.7968 24.5396C78.6902 24.433 78.6367 24.3257 78.6367 24.219C78.6367 24.1124 78.6748 24.0279 78.7515 23.9673C78.8278 23.9064 78.9195 23.876 79.0264 23.876C79.1487 23.876 79.2478 23.9064 79.3241 23.9673C79.981 24.4715 80.5879 24.815 81.1455 24.9981C81.7032 25.1815 82.371 25.273 83.1499 25.273C84.0202 25.273 84.8182 25.1164 85.5439 24.8038C86.2695 24.4906 86.8496 24.0132 87.285 23.372C87.7204 22.7306 87.9379 21.9517 87.9379 21.0354V18.9053C87.5713 19.7761 86.9873 20.4474 86.1853 20.9211C85.3833 21.3943 84.4941 21.6313 83.5167 21.6313C82.4783 21.6313 81.5084 21.4025 80.6075 20.9442C79.7063 20.4859 78.9811 19.8102 78.4309 18.9168C77.8812 18.0236 77.6066 16.9582 77.6066 15.7215C77.6066 14.3929 77.9197 13.2209 78.5457 12.2054C79.1718 11.1895 80.0729 10.4379 81.2489 9.94858C81.9361 9.65832 82.6613 9.51318 83.425 9.51318C84.4176 9.51318 85.3644 9.78058 86.2653 10.3152C87.0748 10.8497 87.6324 11.5292 87.9376 12.354V10.0863C87.9376 9.81092 88.0674 9.67372 88.3271 9.67372C88.4493 9.67372 88.5485 9.71198 88.6248 9.78852C88.7011 9.86528 88.7396 9.96398 88.7396 10.0863V21.0354L88.738 21.0352ZM85.5541 10.8416C84.7907 10.475 84.019 10.2995 83.2406 10.3149C82.1563 10.3917 81.2172 10.7349 80.4229 11.3458C79.7357 11.8804 79.228 12.5218 78.8997 13.2699C78.5714 14.0179 78.4069 14.8199 78.4069 15.6753C78.4069 16.6373 78.6055 17.5081 79.0024 18.2868C79.3993 19.0659 79.9833 19.6842 80.7549 20.142C81.5261 20.6003 82.4461 20.8291 83.5153 20.8291C84.355 20.8291 85.1113 20.638 85.783 20.2561C86.4548 19.8746 86.9814 19.3629 87.3636 18.7215C87.7451 18.08 87.9362 17.3775 87.9362 16.6138V14.6209C87.9362 13.7811 87.7297 13.0323 87.3179 12.376C86.9054 11.7191 86.3174 11.2074 85.5544 10.8409L85.5541 10.8416Z" fill="#0B2027"/>
<path d="M93.2735 12.6737C93.5178 11.8034 94.0295 11.0973 94.8086 10.5546C95.5877 10.0126 96.4578 9.74168 97.4201 9.74168C97.695 9.74168 97.8326 9.87141 97.8326 10.1311C97.8326 10.3908 97.695 10.5205 97.4201 10.5205C96.0455 10.5205 95.0107 11.0208 94.3161 12.0206C93.6214 13.0212 93.2738 14.277 93.2738 15.789V20.9657C93.2738 21.088 93.2357 21.1871 93.1594 21.2634C93.0827 21.3397 92.9914 21.3782 92.8841 21.3782C92.7618 21.3782 92.6627 21.34 92.5864 21.2634C92.5101 21.1871 92.4716 21.088 92.4716 20.9657V10.1309C92.4716 10.0242 92.5098 9.93231 92.5864 9.85601C92.6627 9.77971 92.7618 9.74121 92.8841 9.74121C92.9912 9.74121 93.0827 9.77948 93.1594 9.85601C93.2357 9.93231 93.2738 10.024 93.2738 10.1309V12.6735L93.2735 12.6737Z" fill="#0B2027"/>
<path d="M104.887 21.6309C103.971 21.6309 103.124 21.4554 102.345 21.1043C101.565 20.7526 100.894 20.2489 100.329 19.5923C99.4127 18.4622 98.9542 17.1259 98.9542 15.5836C98.9542 14.7128 99.1222 13.8735 99.4585 13.0641C99.7947 12.2546 100.279 11.556 100.913 10.968C101.547 10.38 102.292 9.96398 103.147 9.71968C103.666 9.58202 104.246 9.51318 104.888 9.51318C105.453 9.51318 106.025 9.58202 106.606 9.71968C107.812 10.0559 108.79 10.7277 109.538 11.7355C110.286 12.7435 110.714 13.881 110.82 15.1487C110.912 16.8898 110.454 18.371 109.446 19.5923C108.881 20.2491 108.208 20.7529 107.43 21.1043C106.651 21.4554 105.804 21.6309 104.887 21.6309H104.887ZM106.353 10.4983C105.865 10.3761 105.369 10.3149 104.865 10.3149C104.392 10.3149 103.911 10.3763 103.421 10.4983C102.307 10.8035 101.421 11.445 100.764 12.4224C100.107 13.3998 99.7793 14.4841 99.7793 15.6751C99.7793 16.3011 99.8785 16.9085 100.077 17.4965C100.276 18.084 100.573 18.6151 100.97 19.0885C101.443 19.6536 102.024 20.0886 102.711 20.3942C103.399 20.6994 104.124 20.8525 104.887 20.8525C105.667 20.8525 106.403 20.6999 107.098 20.3942C107.792 20.089 108.376 19.6536 108.85 19.0885C109.247 18.6153 109.545 18.088 109.744 17.5079C109.942 16.9274 110.041 16.3244 110.041 15.6979C110.041 14.507 109.709 13.4187 109.045 12.4338C108.38 11.4489 107.483 10.804 106.353 10.4983H106.353Z" fill="#0B2027"/>
<path d="M114.577 16.6138C114.577 17.4078 114.78 18.1295 115.184 18.7782C115.589 19.4276 116.124 19.9353 116.788 20.3019C117.452 20.668 118.166 20.8516 118.93 20.8516C119.724 20.8516 120.518 20.6337 121.312 20.1987C122.106 19.7633 122.763 19.1415 123.282 18.3321C123.801 17.5226 124.061 16.5835 124.061 15.5148V10.1544C124.061 9.87958 124.191 9.74191 124.45 9.74191C124.572 9.74191 124.671 9.78018 124.748 9.85671C124.824 9.93301 124.863 10.0322 124.863 10.1544V21.0124C124.863 21.119 124.824 21.2109 124.748 21.2872C124.671 21.3635 124.572 21.402 124.45 21.402C124.191 21.402 124.061 21.2644 124.061 20.9895V17.7826C123.832 18.6223 123.443 19.3326 122.892 19.9127C122.343 20.4932 121.724 20.9246 121.037 21.207C120.35 21.4893 119.678 21.6309 119.021 21.6309C118.121 21.6309 117.269 21.4359 116.467 21.0464C115.665 20.657 115.017 20.0809 114.52 19.317C114.024 18.5535 113.776 17.6521 113.776 16.6138V10.1537C113.776 9.87888 113.906 9.74121 114.166 9.74121C114.288 9.74121 114.387 9.77948 114.464 9.85601C114.54 9.93231 114.578 10.0315 114.578 10.1537V16.6138H114.577Z" fill="#0B2027"/>
<path d="M136.27 21.2184C135.629 21.4932 134.82 21.6309 133.843 21.6309C132.865 21.6309 131.976 21.3941 131.174 20.9206C130.372 20.4474 129.788 19.7754 129.421 18.9049V25.525C129.421 25.7999 129.292 25.9375 129.032 25.9375C128.91 25.9375 128.81 25.8995 128.734 25.8227C128.658 25.7464 128.619 25.6473 128.619 25.525V10.1546C128.619 10.0324 128.658 9.93318 128.734 9.85688C128.81 9.78058 128.91 9.74208 129.032 9.74208C129.292 9.74208 129.421 9.87975 129.421 10.1546V12.354C129.727 11.5292 130.284 10.85 131.094 10.3152C131.994 9.78105 132.941 9.51318 133.934 9.51318C134.957 9.51318 135.915 9.76892 136.809 10.2806C137.702 10.7923 138.416 11.5215 138.95 12.4686C139.485 13.4152 139.752 14.5075 139.752 15.7444C139.752 16.9663 139.447 18.0775 138.836 19.0773C138.225 20.0778 137.37 20.7914 136.271 21.2193L136.27 21.2184ZM129.421 16.614C129.421 17.3931 129.612 18.0952 129.994 18.7217C130.376 19.3477 130.903 19.8478 131.575 20.2218C132.247 20.5958 133.003 20.7984 133.843 20.8287C134.912 20.8436 135.832 20.6222 136.603 20.1644C137.374 19.7061 137.958 19.0876 138.355 18.3092C138.752 17.5301 138.951 16.66 138.951 15.6977C138.951 14.5068 138.684 13.5062 138.149 12.6968C137.614 11.8874 136.962 11.2884 136.19 10.8987C135.419 10.5093 134.682 10.3142 133.98 10.3142C133.185 10.3142 132.441 10.4822 131.747 10.8185C131.052 11.1547 130.491 11.6468 130.063 12.2957C129.636 12.9451 129.422 13.7195 129.422 14.6209V16.6138L129.421 16.614Z" fill="#0B2027"/>
<path d="M72.9862 6.47623C72.9881 6.28396 73.1442 6.1295 73.335 6.13136C73.5261 6.13323 73.6794 6.29026 73.6783 6.48253L72.9862 6.47646V6.47623ZM72.8224 25.8583L72.986 6.476L73.678 6.48206L73.5145 25.8644L72.8224 25.8583ZM73.5145 25.8646C73.5126 26.0569 73.3565 26.2113 73.1656 26.2095C72.9745 26.2076 72.8212 26.0506 72.8224 25.8583L73.5145 25.8644V25.8646Z" fill="#0B2027"/>
</g>
<circle cx="149" cy="16" r="1" fill="#0B2027"/>
<path d="M170.535 7.487C170.642 7.41033 170.734 7.372 170.811 7.372C170.918 7.372 171.018 7.418 171.11 7.51C171.202 7.58667 171.248 7.671 171.248 7.763C171.248 7.87033 171.21 7.95467 171.133 8.016L164.486 13.904L171.616 21.356C171.708 21.448 171.754 21.54 171.754 21.632C171.754 21.724 171.708 21.8083 171.616 21.885C171.539 21.9617 171.447 22 171.34 22C171.248 22 171.156 21.954 171.064 21.862L163.934 14.387L160.875 17.101V21.632C160.875 21.7393 160.837 21.8313 160.76 21.908C160.683 21.9693 160.591 22 160.484 22C160.377 22 160.285 21.9693 160.208 21.908C160.131 21.8313 160.093 21.7393 160.093 21.632V7.763C160.093 7.65567 160.131 7.56367 160.208 7.487C160.285 7.41033 160.377 7.372 160.484 7.372C160.591 7.372 160.683 7.41033 160.76 7.487C160.837 7.56367 160.875 7.65567 160.875 7.763V16.204L170.535 7.487ZM179.021 10.063C180.079 10.063 180.991 10.3007 181.758 10.776C182.54 11.2513 183.107 11.9183 183.46 12.777V10.707C183.46 10.431 183.59 10.293 183.851 10.293C183.974 10.293 184.073 10.3313 184.15 10.408C184.227 10.4847 184.265 10.5843 184.265 10.707V21.586C184.265 21.7087 184.227 21.8083 184.15 21.885C184.073 21.9617 183.974 22 183.851 22C183.59 22 183.46 21.862 183.46 21.586V19.608C183.061 20.482 182.471 21.1413 181.689 21.586C180.907 22.0153 179.987 22.23 178.929 22.23C177.886 22.23 176.92 21.9923 176.031 21.517C175.142 21.0263 174.429 20.321 173.892 19.401C173.355 18.4657 173.087 17.3693 173.087 16.112C173.087 14.8547 173.363 13.766 173.915 12.846C174.467 11.926 175.195 11.236 176.1 10.776C177.02 10.3007 177.994 10.063 179.021 10.063ZM183.46 15.192C183.46 14.3027 183.261 13.5283 182.862 12.869C182.463 12.2097 181.927 11.7113 181.252 11.374C180.577 11.0367 179.849 10.868 179.067 10.868C177.994 10.868 177.066 11.1057 176.284 11.581C175.502 12.041 174.904 12.6697 174.49 13.467C174.091 14.2643 173.892 15.146 173.892 16.112C173.892 17.1087 174.107 18.0133 174.536 18.826C174.965 19.6387 175.548 20.275 176.284 20.735C177.02 21.195 177.84 21.425 178.745 21.425C179.558 21.425 180.324 21.264 181.045 20.942C181.766 20.62 182.348 20.1447 182.793 19.516C183.238 18.872 183.46 18.0977 183.46 17.193V15.192ZM197.173 10.914C198.154 10.914 199.036 11.1363 199.818 11.581C200.6 12.0257 201.205 12.6467 201.635 13.444C202.079 14.2413 202.302 15.146 202.302 16.158C202.302 17.124 202.087 18.0057 201.658 18.803C201.228 19.6003 200.623 20.229 199.841 20.689C199.074 21.149 198.185 21.379 197.173 21.379C196.345 21.379 195.609 21.2333 194.965 20.942V23.288C194.965 23.3953 194.926 23.4873 194.85 23.564C194.773 23.6407 194.681 23.679 194.574 23.679C194.451 23.679 194.351 23.6407 194.275 23.564C194.198 23.4873 194.16 23.3953 194.16 23.288V20.919C193.5 21.2257 192.757 21.379 191.929 21.379C190.917 21.379 190.02 21.149 189.238 20.689C188.471 20.229 187.873 19.6003 187.444 18.803C187.014 18.0057 186.8 17.124 186.8 16.158C186.8 15.146 187.014 14.2413 187.444 13.444C187.888 12.6467 188.494 12.0257 189.261 11.581C190.043 11.1363 190.932 10.914 191.929 10.914C192.465 10.914 192.956 10.9677 193.401 11.075L194.16 11.351V9.465C194.16 9.35767 194.198 9.26567 194.275 9.189C194.351 9.11233 194.451 9.074 194.574 9.074C194.681 9.074 194.773 9.11233 194.85 9.189C194.926 9.26567 194.965 9.35767 194.965 9.465V11.351L195.678 11.075C196.153 10.9677 196.651 10.914 197.173 10.914ZM191.929 20.712C192.849 20.712 193.592 20.5817 194.16 20.321V12.064C193.546 11.7573 192.795 11.604 191.906 11.604C191.093 11.604 190.349 11.788 189.675 12.156C189.015 12.524 188.486 13.053 188.088 13.743C187.704 14.433 187.513 15.238 187.513 16.158C187.513 17.0013 187.697 17.7757 188.065 18.481C188.433 19.171 188.946 19.7153 189.606 20.114C190.28 20.5127 191.055 20.712 191.929 20.712ZM197.173 20.712C198.047 20.712 198.813 20.5127 199.473 20.114C200.147 19.7153 200.669 19.171 201.037 18.481C201.405 17.7757 201.589 17.0013 201.589 16.158C201.589 15.238 201.389 14.433 200.991 13.743C200.607 13.053 200.078 12.524 199.404 12.156C198.729 11.788 197.993 11.604 197.196 11.604C196.26 11.604 195.517 11.7573 194.965 12.064V20.344C195.547 20.5893 196.283 20.712 197.173 20.712ZM216.043 16.112C216.059 16.3113 216.013 16.4877 215.905 16.641C215.798 16.7943 215.606 16.871 215.33 16.871H204.98C205.088 17.7143 205.371 18.4887 205.831 19.194C206.291 19.884 206.897 20.436 207.648 20.85C208.415 21.2487 209.258 21.448 210.178 21.448C210.792 21.448 211.397 21.3483 211.995 21.149C212.609 20.9497 213.168 20.6583 213.674 20.275C213.782 20.1983 213.881 20.16 213.973 20.16C214.081 20.16 214.173 20.1983 214.249 20.275C214.326 20.3363 214.364 20.413 214.364 20.505C214.364 20.6277 214.311 20.7427 214.203 20.85C213.713 21.31 213.122 21.655 212.432 21.885C211.742 22.115 211.014 22.23 210.247 22.23C209.082 22.23 208.032 21.9617 207.096 21.425C206.161 20.8883 205.433 20.1523 204.911 19.217C204.39 18.2817 204.129 17.239 204.129 16.089C204.129 14.801 204.413 13.7047 204.98 12.8C205.563 11.8953 206.307 11.213 207.211 10.753C208.131 10.293 209.09 10.063 210.086 10.063C211.129 10.063 212.095 10.293 212.984 10.753C213.889 11.1977 214.617 11.88 215.169 12.8C215.737 13.7047 216.028 14.8087 216.043 16.112ZM215.261 16.112C215.246 14.962 214.993 13.9883 214.502 13.191C214.012 12.3937 213.375 11.8033 212.593 11.42C211.827 11.0367 211.006 10.845 210.132 10.845C209.212 10.845 208.354 11.0597 207.556 11.489C206.774 11.903 206.146 12.5087 205.67 13.306C205.195 14.1033 204.957 15.0387 204.957 16.112H215.261ZM227.938 10.293C228.076 10.293 228.175 10.3313 228.237 10.408C228.313 10.4693 228.352 10.546 228.352 10.638C228.352 10.73 228.313 10.8143 228.237 10.891C228.16 10.9523 228.06 10.983 227.938 10.983H223.844L223.867 21.563C223.867 21.701 223.821 21.8083 223.729 21.885C223.652 21.9617 223.56 22 223.453 22C223.345 22 223.253 21.9617 223.177 21.885C223.1 21.8083 223.062 21.701 223.062 21.563V10.983H219.037C218.914 10.983 218.814 10.9523 218.738 10.891C218.661 10.8143 218.623 10.73 218.623 10.638C218.623 10.546 218.653 10.4693 218.715 10.408C218.791 10.3313 218.899 10.293 219.037 10.293H227.938ZM242.908 16.112C242.923 16.3113 242.877 16.4877 242.77 16.641C242.662 16.7943 242.471 16.871 242.195 16.871H231.845C231.952 17.7143 232.236 18.4887 232.696 19.194C233.156 19.884 233.761 20.436 234.513 20.85C235.279 21.2487 236.123 21.448 237.043 21.448C237.656 21.448 238.262 21.3483 238.86 21.149C239.473 20.9497 240.033 20.6583 240.539 20.275C240.646 20.1983 240.746 20.16 240.838 20.16C240.945 20.16 241.037 20.1983 241.114 20.275C241.19 20.3363 241.229 20.413 241.229 20.505C241.229 20.6277 241.175 20.7427 241.068 20.85C240.577 21.31 239.987 21.655 239.297 21.885C238.607 22.115 237.878 22.23 237.112 22.23C235.946 22.23 234.896 21.9617 233.961 21.425C233.025 20.8883 232.297 20.1523 231.776 19.217C231.254 18.2817 230.994 17.239 230.994 16.089C230.994 14.801 231.277 13.7047 231.845 12.8C232.427 11.8953 233.171 11.213 234.076 10.753C234.996 10.293 235.954 10.063 236.951 10.063C237.993 10.063 238.959 10.293 239.849 10.753C240.753 11.1977 241.482 11.88 242.034 12.8C242.601 13.7047 242.892 14.8087 242.908 16.112ZM242.126 16.112C242.11 14.962 241.857 13.9883 241.367 13.191C240.876 12.3937 240.24 11.8033 239.458 11.42C238.691 11.0367 237.871 10.845 236.997 10.845C236.077 10.845 235.218 11.0597 234.421 11.489C233.639 11.903 233.01 12.5087 232.535 13.306C232.059 14.1033 231.822 15.0387 231.822 16.112H242.126ZM253.192 21.816C252.548 22.092 251.735 22.23 250.754 22.23C249.772 22.23 248.875 21.9923 248.063 21.517C247.265 21.0417 246.683 20.367 246.315 19.493V26.14C246.315 26.416 246.184 26.554 245.924 26.554C245.801 26.554 245.701 26.5157 245.625 26.439C245.548 26.3623 245.51 26.2627 245.51 26.14V10.707C245.51 10.5843 245.548 10.4847 245.625 10.408C245.701 10.3313 245.801 10.293 245.924 10.293C246.184 10.293 246.315 10.431 246.315 10.707V12.915C246.621 12.087 247.181 11.4047 247.994 10.868C248.898 10.3313 249.849 10.063 250.846 10.063C251.873 10.063 252.831 10.3237 253.721 10.845C254.625 11.351 255.346 12.0793 255.883 13.03C256.419 13.9807 256.688 15.077 256.688 16.319C256.688 17.5457 256.381 18.665 255.768 19.677C255.154 20.6737 254.296 21.3867 253.192 21.816ZM246.315 17.193C246.315 17.975 246.506 18.6803 246.89 19.309C247.273 19.9377 247.802 20.4437 248.477 20.827C249.151 21.195 249.91 21.3943 250.754 21.425C251.827 21.4403 252.747 21.218 253.514 20.758C254.296 20.298 254.886 19.677 255.285 18.895C255.683 18.113 255.883 17.239 255.883 16.273C255.883 15.077 255.614 14.0727 255.078 13.26C254.541 12.4473 253.882 11.8493 253.1 11.466C252.333 11.0673 251.597 10.868 250.892 10.868C250.094 10.868 249.343 11.0367 248.638 11.374C247.948 11.7113 247.388 12.2097 246.959 12.869C246.529 13.513 246.315 14.2873 246.315 15.192V17.193ZM269.57 10.293C269.678 10.293 269.77 10.3313 269.846 10.408C269.923 10.4693 269.961 10.5613 269.961 10.684V21.563C269.961 21.701 269.923 21.8083 269.846 21.885C269.77 21.9617 269.678 22 269.57 22C269.463 22 269.371 21.9617 269.294 21.885C269.233 21.8083 269.202 21.701 269.202 21.563V11.604L260.37 21.77C260.232 21.9233 260.071 22 259.887 22C259.78 22 259.688 21.9693 259.611 21.908C259.535 21.8313 259.496 21.7317 259.496 21.609V10.73C259.496 10.592 259.535 10.4847 259.611 10.408C259.688 10.3313 259.78 10.293 259.887 10.293C259.995 10.293 260.079 10.3313 260.14 10.408C260.217 10.4847 260.255 10.592 260.255 10.73V20.689L269.087 10.523C269.225 10.3697 269.386 10.293 269.57 10.293ZM284.811 10.293C284.918 10.293 285.01 10.3313 285.087 10.408C285.163 10.4693 285.202 10.5613 285.202 10.684V21.563C285.202 21.701 285.163 21.8083 285.087 21.885C285.01 21.9617 284.918 22 284.811 22C284.703 22 284.611 21.9617 284.535 21.885C284.473 21.8083 284.443 21.701 284.443 21.563V11.604L275.611 21.77C275.473 21.9233 275.312 22 275.128 22C275.02 22 274.928 21.9693 274.852 21.908C274.775 21.8313 274.737 21.7317 274.737 21.609V10.73C274.737 10.592 274.775 10.4847 274.852 10.408C274.928 10.3313 275.02 10.293 275.128 10.293C275.235 10.293 275.319 10.3313 275.381 10.408C275.457 10.4847 275.496 10.592 275.496 10.73V20.689L284.328 10.523C284.466 10.3697 284.627 10.293 284.811 10.293ZM281.867 6.475C281.959 6.22967 282.089 6.107 282.258 6.107C282.38 6.107 282.48 6.16067 282.557 6.268C282.633 6.37533 282.649 6.498 282.603 6.636C282.403 7.326 282.104 7.832 281.706 8.154C281.322 8.476 280.786 8.637 280.096 8.637C279.406 8.637 278.861 8.476 278.463 8.154C278.079 7.832 277.788 7.326 277.589 6.636C277.543 6.498 277.558 6.37533 277.635 6.268C277.711 6.16067 277.811 6.107 277.934 6.107C278.102 6.107 278.233 6.22967 278.325 6.475C278.524 7.027 278.754 7.41033 279.015 7.625C279.275 7.83967 279.636 7.93933 280.096 7.924C280.556 7.93933 280.916 7.83967 281.177 7.625C281.437 7.41033 281.667 7.027 281.867 6.475ZM305.052 10.293C305.159 10.293 305.251 10.3313 305.328 10.408C305.405 10.4847 305.443 10.592 305.443 10.73V21.609C305.443 21.7317 305.405 21.8313 305.328 21.908C305.251 21.9693 305.159 22 305.052 22C304.945 22 304.853 21.9693 304.776 21.908C304.699 21.8313 304.661 21.7317 304.661 21.609V10.983L299.256 10.96L298.244 18.044C298.091 19.1633 297.715 20.1063 297.117 20.873C296.519 21.6243 295.676 22 294.587 22C294.464 22 294.365 21.9693 294.288 21.908C294.227 21.8313 294.196 21.747 294.196 21.655C294.196 21.563 294.227 21.4863 294.288 21.425C294.365 21.3483 294.464 21.31 294.587 21.31C295.507 21.31 296.174 21.011 296.588 20.413C297.017 19.815 297.301 19.0253 297.439 18.044L298.497 10.615C298.512 10.523 298.551 10.4463 298.612 10.385C298.689 10.3237 298.781 10.293 298.888 10.293H305.052ZM313.448 14.64C314.46 14.64 315.319 14.8163 316.024 15.169C316.745 15.5063 317.282 15.951 317.634 16.503C318.002 17.055 318.186 17.6453 318.186 18.274C318.186 18.918 318.002 19.5237 317.634 20.091C317.266 20.6583 316.722 21.1183 316.001 21.471C315.281 21.8237 314.422 22 313.425 22H309.285C309.178 21.9847 309.086 21.9463 309.009 21.885C308.948 21.8083 308.917 21.7087 308.917 21.586V10.707C308.917 10.569 308.956 10.4693 309.032 10.408C309.124 10.3313 309.224 10.293 309.331 10.293C309.439 10.293 309.531 10.3313 309.607 10.408C309.684 10.4693 309.722 10.5613 309.722 10.684V14.64H313.448ZM313.448 21.31C314.307 21.31 315.035 21.172 315.633 20.896C316.231 20.6047 316.676 20.229 316.967 19.769C317.259 19.2937 317.404 18.7953 317.404 18.274C317.404 17.446 317.067 16.7483 316.392 16.181C315.718 15.5983 314.736 15.307 313.448 15.307H309.722V21.31H313.448ZM330.437 10.293C330.56 10.293 330.652 10.3313 330.713 10.408C330.79 10.4847 330.828 10.569 330.828 10.661C330.828 10.753 330.79 10.8373 330.713 10.914C330.652 10.9753 330.56 11.006 330.437 11.006H322.847V21.563C322.847 21.701 322.809 21.8083 322.732 21.885C322.656 21.9617 322.564 22 322.456 22C322.349 22 322.257 21.9617 322.18 21.885C322.104 21.8083 322.065 21.701 322.065 21.563V10.73C322.065 10.4387 322.203 10.293 322.479 10.293H330.437ZM339.802 22.23C338.882 22.23 338.031 22.0537 337.249 21.701C336.467 21.3483 335.793 20.8423 335.225 20.183C334.305 19.0483 333.845 17.7067 333.845 16.158C333.845 15.284 334.014 14.4407 334.351 13.628C334.689 12.8153 335.172 12.1177 335.8 11.535C336.444 10.937 337.196 10.5153 338.054 10.27C338.576 10.132 339.158 10.063 339.802 10.063C340.37 10.063 340.945 10.132 341.527 10.27C342.739 10.6073 343.72 11.282 344.471 12.294C345.223 13.306 345.652 14.4483 345.759 15.721C345.851 17.469 345.391 18.9563 344.379 20.183C343.812 20.8423 343.137 21.3483 342.355 21.701C341.573 22.0537 340.722 22.23 339.802 22.23ZM341.274 11.052C340.784 10.9293 340.285 10.868 339.779 10.868C339.304 10.868 338.821 10.9293 338.33 11.052C337.211 11.3587 336.322 12.0027 335.662 12.984C335.003 13.9653 334.673 15.054 334.673 16.25C334.673 16.8787 334.773 17.492 334.972 18.09C335.172 18.6727 335.471 19.2017 335.869 19.677C336.345 20.2443 336.927 20.6813 337.617 20.988C338.307 21.2947 339.036 21.448 339.802 21.448C340.584 21.448 341.32 21.2947 342.01 20.988C342.716 20.6813 343.306 20.2443 343.781 19.677C344.18 19.2017 344.479 18.6727 344.678 18.09C344.878 17.5073 344.977 16.9017 344.977 16.273C344.977 15.077 344.64 13.9883 343.965 13.007C343.306 12.0103 342.409 11.3587 341.274 11.052ZM357.609 10.293C357.747 10.293 357.847 10.3313 357.908 10.408C357.985 10.4693 358.023 10.546 358.023 10.638C358.023 10.73 357.985 10.8143 357.908 10.891C357.831 10.9523 357.732 10.983 357.609 10.983H353.515L353.538 21.563C353.538 21.701 353.492 21.8083 353.4 21.885C353.323 21.9617 353.231 22 353.124 22C353.017 22 352.925 21.9617 352.848 21.885C352.771 21.8083 352.733 21.701 352.733 21.563V10.983H348.708C348.585 10.983 348.486 10.9523 348.409 10.891C348.332 10.8143 348.294 10.73 348.294 10.638C348.294 10.546 348.325 10.4693 348.386 10.408C348.463 10.3313 348.57 10.293 348.708 10.293H357.609Z" fill="#0B2027"/>
<defs>
<clipPath id="clip0_1592_4341">
<rect width="140" height="28" fill="white" transform="translate(0 2)"/>
</clipPath>
</defs>
</svg>
