<svg width="16" height="16" viewBox="0 0 16 16" fill="none" xmlns="http://www.w3.org/2000/svg">
<path d="M5.33333 2.66642H14V3.99976H5.33333V2.66642ZM3.33333 1.99976V3.99976H4V4.66642H2V3.99976H2.66667V2.66642H2V1.99976H3.33333ZM2 9.33309V7.66642H3.33333V7.33309H2V6.66642H4V8.33309H2.66667V8.66642H4V9.33309H2ZM3.33333 12.9998H2V12.3331H3.33333V11.9998H2V11.3331H4V13.9998H2V13.3331H3.33333V12.9998ZM5.33333 7.33309H14V8.66642H5.33333V7.33309ZM5.33333 11.9998H14V13.3331H5.33333V11.9998Z" fill="#0B2027" fill-opacity="0.6"/>
</svg>
