<svg width="22" height="22" viewBox="0 0 22 22" fill="none" xmlns="http://www.w3.org/2000/svg">
<path d="M10.262 5.47681H7.33973C6.17072 5.47681 5.58616 5.47682 5.13968 5.70434C4.74695 5.90368 4.42759 6.22299 4.22752 6.61645C4 7.06313 4 7.64761 4 8.81649V14.6609C4 15.8298 4 16.4143 4.22752 16.8609C4.42759 17.2533 4.74695 17.5727 5.13968 17.773C5.58616 18.0006 6.17072 18.0006 7.33973 18.0006H13.1843C14.3533 18.0006 14.9377 18.0006 15.3843 17.773C15.777 17.5727 16.0963 17.2533 16.2965 16.8609C16.524 16.4143 16.524 15.8298 16.524 14.6609V11.7387" stroke="#0B2027" stroke-width="1.04366" stroke-linecap="round" stroke-linejoin="round"/>
<path d="M8.1748 12.6599C8.1748 12.3197 8.1748 12.1496 8.21332 11.9899C8.24734 11.848 8.30359 11.7123 8.37988 11.587C8.46599 11.4472 8.58632 11.3261 8.82699 11.0861L15.4806 4.43285C16.0569 3.85572 16.9915 3.85572 17.5679 4.43285C18.1442 5.00895 18.1442 5.94301 17.5679 6.52015L10.9143 13.1734C10.6737 13.4134 10.5533 13.5345 10.4128 13.6201C10.2883 13.6962 10.1527 13.7526 10.0106 13.7871C9.85051 13.8257 9.68029 13.8257 9.33995 13.8257H8.1748V12.6599Z" stroke="#00D29D" stroke-width="1.04366" stroke-linecap="round" stroke-linejoin="round"/>
</svg>
